<?xml version="1.0" encoding="UTF-8" standalone="no"?>
<!-- Created with Inkscape (http://www.inkscape.org/) -->

<svg
   width="404.80502mm"
   height="343.79828mm"
   viewBox="0 0 404.80502 343.79828"
   version="1.1"
   id="svg1"
   xml:space="preserve"
   xmlns:inkscape="http://www.inkscape.org/namespaces/inkscape"
   xmlns:sodipodi="http://sodipodi.sourceforge.net/DTD/sodipodi-0.dtd"
   xmlns="http://www.w3.org/2000/svg"
   xmlns:svg="http://www.w3.org/2000/svg"><sodipodi:namedview
     id="namedview1"
     pagecolor="#505050"
     bordercolor="#eeeeee"
     borderopacity="1"
     inkscape:showpageshadow="0"
     inkscape:pageopacity="0"
     inkscape:pagecheckerboard="0"
     inkscape:deskcolor="#505050"
     inkscape:document-units="mm" /><defs
     id="defs1" /><g
     inkscape:label="Layer 1"
     inkscape:groupmode="layer"
     id="layer1"
     transform="translate(97.281479,23.277746)"><path
       style="fill:#000000"
       d="m 30.05892,320.27704 c -5.292864,-0.89215 -9.753401,-3.16909 -13.382873,-6.83146 -4.289365,-4.32825 -6.277953,-8.65469 -6.939781,-15.09841 -0.4939214,-4.80894 -0.1937828,-44.01844 0.353117,-46.1305 1.835391,-7.08804 6.651107,-13.1754 12.813947,-16.1976 5.54852,-2.72094 -6.457373,-2.50032 135.69036,-2.49349 142.00395,0.007 129.96599,-0.21574 135.5318,2.50567 2.45841,1.20205 3.57175,2.04527 6.18006,4.68066 4.29946,4.34411 6.10796,8.04177 6.85773,14.02134 0.46059,3.6732 0.48805,40.32746 0.0331,44.22648 -0.70203,6.01713 -2.79474,10.34986 -7.07371,14.64537 -1.99333,2.00105 -3.38532,3.02771 -5.64444,4.16307 -5.902,2.96614 8.35423,2.67603 -134.93751,2.74595 -70.238059,0.0343 -128.504888,-0.0724 -129.48184,-0.23708 z M -78.847969,191.92133 c -5.184764,-1.16577 -9.882564,-4.18307 -13.456996,-8.64316 -2.034472,-2.53856 -3.060757,-4.5117 -4.148524,-7.97596 l -0.82799,-2.63693 v -23.63611 -23.63612 l 0.82581,-2.64583 c 1.340813,-4.29586 2.754249,-6.58463 6.225709,-10.08123 2.622317,-2.64131 3.704161,-3.45517 6.177649,-4.64736 5.783298,-2.78748 -6.401967,-2.55752 135.519283,-2.55752 142.125688,0 129.714818,-0.2406 135.590458,2.62854 5.6633,2.76546 9.76434,7.41264 11.96436,13.5577 l 1.08842,3.04015 v 24.34167 24.34167 l -0.99612,2.81883 c -2.20184,6.23084 -6.35772,10.99783 -11.98088,13.74262 -5.96836,2.91329 6.65978,2.66864 -135.968556,2.63425 -119.64898,-0.0288 -127.443319,-0.0675 -130.012623,-0.64521 z M -12.967584,63.26879 c -3.47994,-0.717898 -8.362777,-3.200761 -11.009809,-5.598354 -2.86874,-2.598408 -5.426781,-6.476414 -6.679177,-10.125674 l -1.008238,-2.937825 V 20.265269 -4.0763992 l 1.008238,-2.937824 c 2.0545,-5.9864488 6.379159,-10.8919068 12.044541,-13.6621178 5.907195,-2.888451 -6.660762,-2.654344 136.701399,-2.546372 120.8301,0.091 127.99867,0.130524 129.99862,0.716724 4.20998,1.233976 7.20027,3.022433 10.43888,6.243364 3.37785,3.359404 5.09351,6.115755 6.37748,10.2459479 l 0.82253,2.6458335 V 20.265269 43.901382 l -0.82253,2.645833 c -1.28397,4.130193 -2.99963,6.886544 -6.37748,10.245948 -3.23861,3.220932 -6.2289,5.009389 -10.43888,6.243365 -2.00101,0.58651 -9.12376,0.623724 -130.3514,0.681055 -110.570391,0.05229 -128.574895,-0.0095 -130.704174,-0.448793 z"
       id="path1" /></g></svg>
